<?xml version="1.0" standalone="no"?>
<!DOCTYPE svg PUBLIC "-//W3C//DTD SVG 20010904//EN"
 "http://www.w3.org/TR/2001/REC-SVG-20010904/DTD/svg10.dtd">
<svg version="1.0" xmlns="http://www.w3.org/2000/svg"
 width="720.000000pt" height="720.000000pt" viewBox="0 0 720.000000 720.000000"
 preserveAspectRatio="xMidYMid meet">
<metadata>
Created by potrace 1.11, written by Peter Selinger 2001-2013
</metadata>
<g transform="translate(0.000000,720.000000) scale(0.100000,-0.100000)"
fill="#000000" stroke="none">
<path d="M1530 7188 c-25 -5 -54 -11 -65 -12 -11 -2 -27 -5 -35 -9 -8 -3 -46
-15 -85 -28 -38 -13 -77 -29 -86 -36 -8 -7 -20 -13 -26 -13 -14 0 -153 -91
-194 -127 -77 -66 -199 -209 -199 -231 0 -6 -3 -12 -8 -14 -10 -4 -85 -148
-76 -148 3 0 2 -6 -3 -12 -10 -12 -32 -73 -34 -90 0 -4 -5 -22 -10 -40 -23
-76 -32 -290 -17 -393 19 -125 114 -368 150 -383 4 -2 8 -8 8 -13 0 -11 66
-97 96 -126 l23 -21 -36 -49 c-21 -26 -41 -49 -45 -51 -4 -2 -8 -10 -8 -18 0
-8 -4 -14 -10 -14 -5 0 -10 -5 -10 -10 0 -6 -11 -28 -25 -50 -14 -22 -23 -40
-20 -40 2 0 -4 -15 -14 -32 -16 -29 -27 -63 -32 -93 0 -5 -5 -17 -10 -26 -4
-9 -10 -27 -13 -40 -3 -13 -8 -35 -11 -49 -9 -41 -17 -142 -15 -190 1 -25 2
-49 1 -55 -1 -9 -1 -63 -1 -205 0 -25 0 -74 -1 -110 0 -36 0 -69 1 -75 1 -5 1
-32 1 -60 -1 -53 -1 -179 0 -205 0 -8 0 -67 0 -130 -1 -63 -1 -123 -1 -132 1
-15 1 -262 1 -325 -1 -168 -1 -304 0 -328 1 -16 0 -33 -1 -37 -1 -7 -1 -129 1
-170 0 -7 0 -65 0 -128 -1 -63 -1 -122 -1 -130 1 -8 1 -44 0 -80 0 -36 0 -78
1 -95 1 -16 0 -33 -1 -37 -1 -7 -1 -129 1 -170 0 -7 0 -65 0 -128 -1 -63 -1
-122 0 -130 0 -8 0 -44 0 -80 -1 -36 -1 -73 -1 -82 1 -26 1 -305 0 -325 0 -10
0 -56 1 -103 0 -47 0 -89 0 -95 -1 -13 -1 -155 0 -175 0 -8 0 -67 0 -130 -2
-177 0 -231 10 -285 5 -27 11 -61 13 -75 3 -14 5 -25 6 -25 1 0 3 -7 5 -15 8
-37 40 -120 68 -175 137 -273 390 -462 696 -519 74 -14 289 -15 341 -2 14 4
35 9 47 12 12 2 34 9 48 14 14 5 25 8 25 5 0 -8 161 64 190 85 15 11 31 20 35
20 10 0 123 89 163 128 52 53 132 154 132 168 0 7 4 14 9 16 22 8 99 192 125
298 17 70 20 208 21 942 0 439 1 798 2 798 1 0 513 -510 1137 -1134 639 -638
1163 -1154 1198 -1179 75 -54 193 -116 240 -126 4 -1 24 -9 43 -17 20 -8 55
-17 78 -21 23 -3 51 -9 62 -13 23 -9 277 -6 315 4 14 3 39 8 55 11 45 9 216
76 247 97 14 10 31 18 37 18 6 0 11 4 11 8 0 5 10 13 23 19 56 26 196 165 260
260 57 85 98 172 134 288 l28 90 0 2075 c0 1141 -3 2093 -8 2115 -14 76 -31
140 -39 149 -4 6 -8 15 -8 22 0 25 -70 161 -118 229 -183 261 -487 416 -802
409 -58 -1 -118 -5 -135 -7 -78 -14 -94 -18 -133 -31 -23 -9 -46 -16 -50 -17
-40 -9 -159 -70 -223 -115 -220 -155 -370 -396 -406 -654 -4 -30 -8 -418 -8
-862 0 -445 -2 -808 -4 -808 -2 0 -444 440 -982 977 -538 538 -983 979 -989
981 -5 2 -10 9 -11 15 0 7 -22 30 -49 52 -26 22 -54 50 -60 62 -7 12 -16 21
-19 19 -3 -1 -20 14 -38 34 l-32 36 25 30 c70 82 90 110 137 194 36 66 73 152
81 192 3 13 10 41 16 63 32 127 33 308 1 450 -30 133 -97 278 -181 390 -8 11
-51 56 -95 101 -125 126 -254 201 -440 256 -87 26 -119 30 -240 33 -77 1 -160
-2 -185 -7z"/>
</g>
</svg>
