<?xml version="1.0" standalone="no"?>
<!DOCTYPE svg PUBLIC "-//W3C//DTD SVG 20010904//EN"
 "http://www.w3.org/TR/2001/REC-SVG-20010904/DTD/svg10.dtd">
<svg version="1.0" xmlns="http://www.w3.org/2000/svg"
 width="900.000000pt" height="900.000000pt" viewBox="0 0 900.000000 900.000000"
 preserveAspectRatio="xMidYMid meet">
<metadata>
Created by potrace 1.11, written by Peter Selinger 2001-2013
</metadata>
<g transform="translate(0.000000,900.000000) scale(0.100000,-0.100000)"
fill="#000000" stroke="none">
<path d="M4410 8950 c-47 -27 -90 -54 -97 -59 -7 -6 -15 -11 -18 -11 -3 0
-197 -110 -430 -245 -233 -135 -441 -255 -462 -266 -21 -12 -139 -80 -263
-152 -124 -72 -256 -148 -295 -170 -38 -22 -185 -106 -325 -187 -140 -81 -271
-156 -290 -167 -19 -11 -111 -64 -205 -118 -93 -54 -183 -106 -200 -115 -16
-10 -57 -33 -90 -52 -55 -32 -745 -430 -825 -476 -19 -11 -78 -44 -130 -74
-52 -30 -114 -66 -137 -81 l-42 -27 3 -2242 c2 -1234 4 -2246 5 -2250 1 -4 38
-28 83 -53 46 -25 90 -50 98 -55 34 -22 362 -210 366 -210 3 0 17 -8 32 -19
15 -10 182 -108 372 -216 190 -109 370 -213 400 -231 99 -58 494 -286 550
-317 30 -17 67 -38 82 -49 14 -10 31 -18 37 -18 6 0 11 -4 11 -10 0 -5 5 -10
11 -10 6 0 64 -31 128 -69 64 -37 136 -79 161 -93 25 -14 112 -64 194 -112 82
-47 153 -86 158 -86 4 0 8 -4 8 -10 0 -5 4 -10 9 -10 8 0 243 -132 266 -150 6
-4 35 -21 65 -38 30 -16 165 -93 298 -171 134 -78 248 -141 253 -141 5 0 9 -4
9 -10 0 -5 4 -10 10 -10 5 0 55 -27 111 -60 55 -33 104 -60 107 -60 4 0 18 -9
32 -20 14 -11 31 -20 39 -20 8 0 105 52 215 117 111 64 215 124 232 133 17 10
203 118 415 240 327 190 751 435 866 501 18 10 162 93 320 185 159 92 306 177
328 189 22 13 81 46 130 75 50 29 108 63 130 75 22 13 135 78 250 145 116 68
224 131 242 141 130 74 515 297 545 316 21 12 40 23 43 23 2 0 29 16 59 35 30
19 59 35 63 35 4 0 19 9 33 19 l25 20 1 2243 1 2243 -91 54 c-50 30 -116 68
-146 85 -46 26 -233 133 -298 171 -9 6 -71 41 -137 79 -66 39 -185 108 -265
154 -143 84 -174 102 -247 143 -118 67 -323 185 -353 204 -28 18 -270 157
-615 355 -16 10 -203 118 -415 240 -212 123 -398 231 -415 240 -16 9 -111 64
-210 122 -99 57 -200 116 -225 130 -25 14 -101 58 -170 98 -69 40 -145 84
-169 98 -25 14 -67 38 -93 53 -27 16 -50 29 -51 28 -1 0 -40 -22 -87 -49z"/>
</g>
</svg>
