<svg width="451" height="468" viewBox="0 0 451 468" fill="none" xmlns="http://www.w3.org/2000/svg">
<rect width="451" height="468" fill="#F5F5F5"/>
<path d="M201.697 3.11272H16.609C12.7322 3.11962 9.01639 4.75308 6.27738 7.65449C3.53837 10.5559 1.99999 14.4881 2 18.5879V440.638C1.99999 444.737 3.53837 448.67 6.27738 451.571C9.01639 454.472 12.7322 456.106 16.609 456.113H337.391C341.268 456.106 344.984 454.472 347.723 451.571C350.462 448.67 352 444.737 352 440.638V161.329C352 157.229 350.462 153.297 347.723 150.396C344.984 147.494 341.268 145.861 337.391 145.854H230.915C227.039 145.847 223.323 144.214 220.584 141.312C217.845 138.411 216.306 134.479 216.306 130.379V18.5879C216.31 16.5569 215.934 14.5451 215.201 12.6678C214.469 10.7904 213.393 9.0842 212.036 7.64686C210.679 6.20952 209.068 5.06922 207.294 4.2912C205.52 3.51318 203.618 3.11271 201.697 3.11272Z" fill="#83B9F9"/>
<path d="M194.893 23.2578V129.101C194.899 139.387 198.758 149.251 205.623 156.529C212.488 163.808 221.799 167.907 231.514 167.927H332.214V436.046H21.7366V23.2578H194.893ZM201.942 0.112717H14.7367C10.8283 0.112717 7.07995 1.75664 4.31628 4.68285C1.55261 7.60905 0 11.5778 0 15.7161V443.509C0 445.558 0.381176 447.587 1.12176 449.48C1.86235 451.374 2.94785 453.094 4.31628 454.543C5.68471 455.992 7.30927 457.141 9.09721 457.925C10.8851 458.709 12.8014 459.113 14.7367 459.113H339.263C341.199 459.113 343.115 458.709 344.903 457.925C346.691 457.141 348.315 455.992 349.684 454.543C351.052 453.094 352.138 451.374 352.878 449.48C353.619 447.587 354 445.558 354 443.509V160.438C354 156.299 352.447 152.331 349.684 149.404C346.92 146.478 343.172 144.834 339.263 144.834H231.514C227.605 144.834 223.857 143.19 221.093 140.264C218.329 137.338 216.777 133.369 216.777 129.231V15.7161C216.777 11.5778 215.224 7.60905 212.461 4.68285C209.697 1.75664 205.949 0.112717 202.04 0.112717L201.942 0.112717Z" fill="#4699FF"/>
<path d="M348 148.113L211 3.11272V121.26C210.961 128.336 213.569 135.139 218.252 140.174C222.935 145.209 229.309 148.064 235.974 148.113H348Z" fill="#0078D4"/>
<path d="M275.107 216.113H64.8933C57.2203 216.113 51 222.832 51 231.122V237.104C51 245.393 57.2203 252.113 64.8933 252.113H275.107C282.78 252.113 289 245.393 289 237.104V231.122C289 222.832 282.78 216.113 275.107 216.113Z" fill="white"/>
<path opacity="0.8" d="M275.107 288.113H64.8933C57.2203 288.113 51 294.832 51 303.122V309.104C51 317.393 57.2203 324.113 64.8933 324.113H275.107C282.78 324.113 289 317.393 289 309.104V303.122C289 294.832 282.78 288.113 275.107 288.113Z" fill="white"/>
<path opacity="0.6" d="M275.107 360.113H64.8933C57.2203 360.113 51 366.646 51 374.705V380.521C51 388.58 57.2203 395.113 64.8933 395.113H275.107C282.78 395.113 289 388.58 289 380.521V374.705C289 366.646 282.78 360.113 275.107 360.113Z" fill="white"/>
<path d="M326.612 456C269.049 456 221.718 414.842 196.707 342.815C180.52 305.361 162.261 268.707 142 233C178.601 233.36 306.565 234.621 331.048 234.621C389.61 234.621 435 299.548 435 355.523C434.941 382.168 423.5 407.704 403.184 426.538C382.868 445.372 355.333 455.966 326.612 456Z" fill="#50E6FF"/>
<path d="M161.429 242.329C207.058 242.772 318.413 243.866 340.978 243.866C396.267 243.866 439.121 306.632 439.121 360.621C439.121 386.178 428.301 410.688 409.042 428.759C389.783 446.831 363.662 456.983 336.426 456.983C281.554 456.983 236.202 416.615 211.999 346.218C197.116 310.772 180.236 276.093 161.429 242.329ZM142 231C142 231 190.267 318.664 200.869 349.5C225.266 420.444 273.366 468 336.565 468C366.915 468 396.022 456.687 417.483 436.549C438.943 416.412 451 389.1 451 360.621C451 301.319 404.232 232.745 341.006 232.745C312.334 232.745 142 231 142 231Z" fill="#50E6FF"/>
<path d="M333.5 468C398.393 468 451 415.393 451 350.5C451 285.607 398.393 233 333.5 233C268.607 233 216 285.607 216 350.5C216 415.393 268.607 468 333.5 468Z" fill="white"/>
<path d="M333.5 245.46C354.276 245.455 374.587 251.611 391.864 263.15C409.141 274.689 422.609 291.092 430.563 310.285C438.517 329.478 440.601 350.599 436.551 370.976C432.501 391.354 422.499 410.072 407.81 424.765C393.121 439.458 374.404 449.464 354.028 453.52C333.651 457.575 312.53 455.496 293.335 447.547C274.14 439.597 257.734 426.134 246.19 408.86C234.647 391.585 228.486 371.276 228.486 350.5C228.514 322.655 239.586 295.957 259.273 276.265C278.96 256.573 305.655 245.495 333.5 245.46ZM333.5 233C310.261 233 287.543 239.891 268.221 252.802C248.898 265.713 233.838 284.064 224.944 305.535C216.051 327.005 213.724 350.63 218.258 373.423C222.792 396.216 233.982 417.152 250.415 433.585C266.848 450.018 287.784 461.208 310.577 465.742C333.37 470.276 356.995 467.949 378.465 459.056C399.936 450.162 418.287 435.102 431.198 415.779C444.109 396.457 451 373.739 451 350.5C451.003 335.069 447.967 319.788 442.063 305.531C436.159 291.273 427.504 278.319 416.593 267.407C405.681 256.496 392.727 247.841 378.469 241.937C364.212 236.033 348.931 232.997 333.5 233Z" fill="#50E6FF"/>
<path d="M320.732 336.81H280V296.113H320.732V336.81ZM392 296.169H351.268V336.81H392V296.169ZM320.732 367.472H280V408.113H320.732V367.472ZM392 367.472H351.268V408.113H392V367.472Z" fill="#50E6FF"/>
</svg>
