<svg width="225" height="225" viewBox="0 0 225 225" fill="none" xmlns="http://www.w3.org/2000/svg">
<path d="M103.002 4.11272H16.8036C14.9981 4.11596 13.2676 4.88401 11.992 6.24825C10.7164 7.61249 10 9.4614 10 11.3891V209.836C10 211.764 10.7164 213.613 11.992 214.977C13.2676 216.341 14.9981 217.109 16.8036 217.113H166.196C168.002 217.109 169.733 216.341 171.008 214.977C172.284 213.613 173 211.764 173 209.836V78.5058C173 76.5779 172.284 74.7291 171.008 73.3651C169.733 72.0006 168.002 71.2327 166.196 71.2294H116.609C114.804 71.2261 113.073 70.4583 111.798 69.0938C110.522 67.7298 109.805 65.8809 109.805 63.9531V11.3891C109.807 10.4341 109.632 9.4882 109.291 8.6055C108.95 7.72275 108.449 6.9205 107.817 6.24466C107.185 5.56883 106.435 5.03266 105.608 4.66684C104.782 4.30101 103.896 4.11271 103.002 4.11272Z" fill="#83B9F9"/>
<path d="M99.84 14.0045V63.813C99.8428 68.6535 101.641 73.2954 104.841 76.7203C108.041 80.1457 112.381 82.0747 116.909 82.0841H163.846V208.258H19.1315V14.0045H99.84ZM103.126 3.11272H15.8688C14.0471 3.11272 12.3 3.88633 11.0118 5.26337C9.72367 6.6404 9 8.50805 9 10.4555V211.77C9 212.734 9.17767 213.689 9.52285 214.58C9.86804 215.471 10.374 216.28 11.0118 216.962C11.6497 217.644 12.4069 218.185 13.2402 218.554C14.0736 218.923 14.9668 219.113 15.8688 219.113H167.131C168.033 219.113 168.926 218.923 169.76 218.554C170.593 218.185 171.35 217.644 171.988 216.962C172.626 216.28 173.132 215.471 173.477 214.58C173.822 213.689 174 212.734 174 211.77V78.5599C174 76.6121 173.276 74.7448 171.988 73.3674C170.7 71.9905 168.953 71.2168 167.131 71.2168H116.909C115.087 71.2168 113.34 70.4432 112.052 69.0662C110.764 67.6893 110.04 65.8215 110.04 63.8742V10.4555C110.04 8.50805 109.316 6.6404 108.028 5.26337C106.74 3.88633 104.993 3.11272 103.171 3.11272H103.126Z" fill="#4699FF"/>
<path d="M172 73.1127L108 4.11272V60.3344C107.982 63.7016 109.2 66.9389 111.388 69.3349C113.576 71.7308 116.553 73.0894 119.667 73.1127H172Z" fill="#0078D4"/>
<path d="M138.462 105.113H39.538C35.9272 105.113 33 108.286 33 112.2V115.025C33 118.939 35.9272 122.113 39.538 122.113H138.462C142.073 122.113 145 118.939 145 115.025V112.2C145 108.286 142.073 105.113 138.462 105.113Z" fill="white"/>
<path opacity="0.8" d="M138.462 138.113H39.538C35.9272 138.113 33 141.286 33 145.2V148.025C33 151.939 35.9272 155.113 39.538 155.113H138.462C142.073 155.113 145 151.939 145 148.025V145.2C145 141.286 142.073 138.113 138.462 138.113Z" fill="white"/>
<path opacity="0.6" d="M138.462 172.113H39.538C35.9272 172.113 33 175.286 33 179.2V182.025C33 185.94 35.9272 189.113 39.538 189.113H138.462C142.073 189.113 145 185.94 145 182.025V179.2C145 175.286 142.073 172.113 138.462 172.113Z" fill="white"/>
<path d="M160.95 217.113C133.839 217.113 111.546 197.733 99.7664 163.819C92.1425 146.184 83.5427 128.925 74 112.113C91.2387 112.282 151.508 112.876 163.04 112.876C190.622 112.876 212 143.447 212 169.803C211.972 182.349 206.584 194.372 197.015 203.24C187.446 212.108 174.478 217.097 160.95 217.113Z" fill="#50E6FF"/>
<path d="M85.0543 116.467C106.318 116.676 158.212 117.193 168.728 117.193C194.493 117.193 214.464 146.854 214.464 172.368C214.464 184.446 209.422 196.029 200.447 204.568C191.472 213.109 179.299 217.906 166.606 217.906C141.035 217.906 119.9 198.83 108.621 165.562C101.685 148.811 93.8187 132.422 85.0543 116.467ZM76 111.113C76 111.113 98.4934 152.54 103.434 167.113C114.804 200.639 137.219 223.113 166.671 223.113C180.815 223.113 194.379 217.766 204.38 208.25C214.381 198.734 220 185.827 220 172.368C220 144.344 198.205 111.937 168.741 111.937C155.379 111.937 76 111.113 76 111.113Z" fill="#50E6FF"/>
<path d="M165 223.113C195.375 223.113 220 198.264 220 167.613C220 136.961 195.375 112.113 165 112.113C134.625 112.113 110 136.961 110 167.613C110 198.264 134.625 223.113 165 223.113Z" fill="white"/>
<path d="M164.5 117.998C174.313 117.996 183.907 120.903 192.068 126.354C200.228 131.804 206.59 139.552 210.347 148.618C214.104 157.683 215.088 167.659 213.175 177.284C211.262 186.91 206.538 195.751 199.6 202.691C192.661 209.631 183.821 214.357 174.196 216.273C164.571 218.189 154.595 217.207 145.528 213.452C136.462 209.697 128.713 203.338 123.26 195.179C117.808 187.019 114.898 177.426 114.898 167.613C114.911 154.46 120.141 141.85 129.44 132.549C138.739 123.247 151.348 118.015 164.5 117.998ZM164.5 112.113C153.523 112.113 142.793 115.368 133.666 121.466C124.539 127.564 117.426 136.232 113.225 146.374C109.024 156.515 107.925 167.674 110.067 178.44C112.208 189.206 117.494 199.095 125.256 206.857C133.018 214.619 142.906 219.905 153.673 222.046C164.439 224.188 175.598 223.089 185.739 218.888C195.88 214.687 204.548 207.574 210.647 198.447C216.745 189.32 220 178.589 220 167.613C220.001 160.324 218.567 153.106 215.779 146.372C212.99 139.637 208.902 133.519 203.748 128.365C198.594 123.211 192.475 119.123 185.741 116.334C179.007 113.545 171.789 112.111 164.5 112.113Z" fill="#50E6FF"/>
<path d="M158.275 161.371H139V142.113H158.275V161.371ZM192 142.139H172.725V161.371H192V142.139ZM158.275 175.881H139V195.113H158.275V175.881ZM192 175.881H172.725V195.113H192V175.881Z" fill="#50E6FF"/>
</svg>
