<svg width="248" height="248" viewBox="0 0 248 248" fill="none" xmlns="http://www.w3.org/2000/svg">
<path d="M124 243C189.722 243 243 189.722 243 124C243 58.2781 189.722 5 124 5C58.2781 5 5 58.2781 5 124C5 189.722 58.2781 243 124 243Z" fill="#41B3FF"/>
<path d="M124 232C183.647 232 232 183.647 232 124C232 64.3532 183.647 16 124 16C64.3532 16 16 64.3532 16 124C16 183.647 64.3532 232 124 232Z" fill="white"/>
<path d="M124 142C133.941 142 142 133.941 142 124C142 114.059 133.941 106 124 106C114.059 106 106 114.059 106 124C106 133.941 114.059 142 124 142Z" fill="#49EAFF"/>
<path d="M32 130C33.4888 152.271 42.9708 173.239 58.6806 189L88 159.5C80.0654 151.525 74.9206 141.172 73.3403 130H32Z" fill="#9CEBFF"/>
<path d="M184.607 54.6082C169.575 41.3104 150.648 33.3685 130.728 32V73.2268C139.833 74.2836 148.473 77.8628 155.696 83.5704L184.607 54.6082ZM64 54.6082L93.2027 84.1615C100.426 78.4539 109.066 74.8746 118.171 73.8179V32C98.1492 33.3049 79.1103 41.2508 64 54.6082ZM164.895 92.7319C170.469 100.096 174.043 108.807 175.262 118H216C214.681 97.9212 206.825 78.8505 193.66 63.7698L164.895 92.7319Z" fill="#32BEDD"/>
<path d="M83 92.6496L53.8571 63C40.7581 78.3477 33.0663 97.7028 32 118H72.6543C73.8715 108.777 77.438 100.038 83 92.6496Z" fill="#50E6FF"/>
<path d="M199.455 94.9979C198.806 93.4542 197.578 92.2177 196.028 91.5463C194.478 90.8748 192.725 90.8203 191.136 91.394L131 115.324L135.671 127L195.806 103.503C196.628 103.203 197.379 102.74 198.012 102.142C198.646 101.545 199.149 100.826 199.491 100.029C199.833 99.2322 200.006 98.3749 200 97.5097C199.994 96.6445 199.808 95.7897 199.455 94.9979Z" fill="#0077FF"/>
</svg>
