<svg width="600" height="600" viewBox="0 0 600 600" fill="none" xmlns="http://www.w3.org/2000/svg">
<path d="M300.174 600C588.861 381.403 598.743 253.826 599.802 213.912C601.566 157.957 594.508 12.1016 453.341 0.537595C420.295 -2.06069 387.362 6.95393 359.664 26.18C331.965 45.406 311.051 73.7663 300.174 106.852C289.119 73.5087 267.912 44.9837 239.876 25.7451C211.839 6.50651 178.557 -2.35892 145.243 0.537595C5.84087 12.1016 -1.57041 157.957 0.194184 213.912C0.194184 253.826 11.4875 381.403 300.174 600Z" fill="#0078D4"/>
<path d="M599.802 191.903H458.635C457.733 191.946 456.853 192.203 456.058 192.655C455.264 193.107 454.576 193.742 454.047 194.514L411.344 272.478C410.834 273.325 410.13 274.023 409.297 274.506C408.464 274.99 407.529 275.243 406.579 275.243C405.629 275.243 404.694 274.99 403.862 274.506C403.029 274.023 402.325 273.325 401.815 272.478L340.76 149.75C339.872 147.775 338.472 146.106 336.723 144.938C334.974 143.769 332.947 143.149 330.878 143.149C328.809 143.149 326.783 143.769 325.033 144.938C323.284 146.106 321.885 147.775 320.997 149.75L262.412 334.401C261.958 335.431 261.235 336.302 260.329 336.912C259.422 337.522 258.37 337.847 257.295 337.847C256.22 337.847 255.168 337.522 254.261 336.912C253.355 336.302 252.632 335.431 252.178 334.401L202.063 211.674C201.139 209.797 199.746 208.224 198.035 207.126C196.323 206.028 194.36 205.447 192.358 205.447C190.356 205.447 188.393 206.028 186.682 207.126C184.97 208.224 183.577 209.797 182.653 211.674L114.187 341.862C113.718 342.724 113.052 343.448 112.251 343.97C111.45 344.491 110.538 344.792 109.599 344.846H44.6618C54.4028 360.656 65.0084 375.852 76.4245 390.356H135.715C136.679 390.433 137.643 390.187 138.467 389.651C139.291 389.115 139.933 388.317 140.303 387.372L183.006 304.186C183.494 303.253 184.21 302.475 185.079 301.934C185.948 301.392 186.938 301.107 187.947 301.107C188.955 301.107 189.945 301.392 190.814 301.934C191.683 302.475 192.399 303.253 192.887 304.186L251.472 448.176C252.257 450.374 253.657 452.266 255.486 453.602C257.314 454.938 259.484 455.654 261.706 455.654C263.929 455.654 266.099 454.938 267.927 453.602C269.756 452.266 271.156 450.374 271.941 448.176L333.702 254.199C334.086 253.144 334.764 252.236 335.646 251.596C336.528 250.955 337.573 250.613 338.643 250.613C339.713 250.613 340.757 250.955 341.639 251.596C342.521 252.236 343.199 253.144 343.583 254.199L395.109 357.529C396.011 359.324 397.357 360.826 399.005 361.874C400.653 362.921 402.539 363.474 404.462 363.474C406.384 363.474 408.271 362.921 409.918 361.874C411.566 360.826 412.913 359.324 413.814 357.529L479.457 240.77C479.926 239.908 480.591 239.184 481.392 238.662C482.194 238.141 483.105 237.84 484.045 237.786H598.037" fill="white"/>
</svg>
