<svg width="532" height="558" viewBox="0 0 532 558" fill="none" xmlns="http://www.w3.org/2000/svg">
<path d="M193.505 149.223C86.6317 149.223 0 117.054 0 74.6275V472.217C0 513.056 85.1113 546.178 190.792 546.813H193.535C300.379 546.813 387.011 514.644 387.011 472.217V74.6275C386.981 116.101 300.349 149.223 193.505 149.223Z" fill="#5285CC"/>
<path d="M386.981 74.6275C386.981 116.101 300.349 149.223 193.505 149.223C86.6615 149.223 0 117.054 0 74.6275C0 32.201 86.6317 0 193.505 0C300.379 0 386.981 32.1692 386.981 74.6275Z" fill="#E8E8E8"/>
<path d="M342.025 68.4985C342.025 94.8881 275.308 116.133 193.505 116.133C111.703 116.133 45.0747 94.8881 45.0747 68.4985C45.0747 42.109 111.673 21.2768 193.505 21.2768C275.337 21.2768 342.025 42.4583 342.025 68.4985Z" fill="#50E6FF"/>
<path d="M193.505 80.4072C153.658 79.3206 113.93 85.5182 76.0487 98.7306C113.97 111.682 153.706 117.559 193.505 116.101C233.373 117.352 273.133 111.051 310.932 97.4921C272.954 84.8818 233.267 79.1076 193.505 80.4072Z" fill="#198AB3"/>
<path d="M422.248 329.314C422.265 351.37 416.143 372.938 404.655 391.288C393.166 409.639 376.828 423.948 357.706 432.408C338.583 440.868 317.535 443.097 297.223 438.815C276.912 434.533 258.248 423.931 243.592 408.35C228.936 392.769 218.946 372.908 214.886 351.28C210.825 329.651 212.876 307.226 220.78 286.839C228.683 266.452 242.084 249.019 259.287 236.745C276.491 224.47 296.725 217.906 317.431 217.88H317.64C345.381 217.889 371.984 229.632 391.6 250.528C411.216 271.424 422.24 299.762 422.248 329.314Z" fill="white"/>
<path d="M393.653 408.449L391.609 410.627C383.424 419.345 383.424 433.48 391.609 442.199L485.498 542.214C493.682 550.932 506.952 550.932 515.136 542.214L517.181 540.036C525.365 531.318 525.365 517.182 517.181 508.464L423.292 408.449C415.107 399.73 401.838 399.73 393.653 408.449Z" fill="#007EDE"/>
<path d="M441.565 300.257C434.233 265.655 414.441 235.504 386.45 216.29C358.459 197.076 324.506 190.335 291.897 197.519C259.288 204.703 230.629 225.237 212.089 254.701C193.548 284.166 186.607 320.207 192.76 355.068C194.131 362.877 196.187 370.532 198.901 377.933C209.525 407.475 229.531 432.117 255.441 447.578C281.35 463.039 311.527 468.341 340.725 462.562C369.923 456.783 396.298 440.288 415.265 415.945C434.232 391.602 444.593 360.949 444.546 329.314C444.555 319.541 443.555 309.797 441.565 300.257ZM317.58 440.906C290.492 440.917 264.456 429.738 244.946 409.72C225.437 389.702 213.975 362.404 212.972 333.569V329.314C212.972 299.806 223.955 271.503 243.514 250.608C263.073 229.714 289.612 217.933 317.312 217.849H317.52C339.915 217.799 361.734 225.404 379.77 239.546C397.806 253.688 411.106 273.621 417.716 296.414C420.075 304.44 421.546 312.731 422.099 321.12C422.277 323.873 422.367 326.625 422.367 329.377C422.375 344.034 419.669 358.548 414.405 372.089C409.14 385.63 401.421 397.933 391.688 408.292C381.954 418.651 370.399 426.864 357.683 432.46C344.966 438.057 331.339 440.926 317.58 440.906Z" fill="#50E6FF"/>
<path d="M424.931 305.401C425.036 303.179 424.312 301.003 422.915 299.348C421.518 297.694 419.563 296.696 417.478 296.573H372.761C372.102 296.571 371.456 296.762 370.893 297.127C370.33 297.491 369.873 298.013 369.571 298.637L353.205 329.885L326.374 272.12L301.452 354.719L280.286 295.874L252.234 351.162C251.931 351.8 251.477 352.343 250.918 352.738C250.359 353.133 249.713 353.367 249.044 353.417H212.018V370.152H257.54C258.246 370.142 258.935 369.926 259.534 369.529C260.133 369.131 260.618 368.567 260.939 367.898L277.603 334.617L303.33 402.607L329.505 315.119L352.459 364.754L378.186 315.595C378.463 314.952 378.915 314.414 379.485 314.051C380.054 313.688 380.714 313.518 381.376 313.562H417.15C419.186 313.539 421.134 312.675 422.585 311.153C424.036 309.631 424.877 307.569 424.931 305.401Z" fill="#32BEDD"/>
</svg>
