<svg xmlns="http://www.w3.org/2000/svg" width="49" height="49" viewBox="0 0 49 49" fill="none">
<path d="M37.0898 12.0703H48.0898V7.07031H37.0898V12.0703Z" fill="#50E6FF"/>
<path d="M37.0898 5.07031H48.0898V0.0703125H37.0898V5.07031Z" fill="#50E6FF"/>
<path d="M0.0898438 0H48.0898V30H0.0898438V0Z" fill="#50E6FF"/>
<path d="M13.0898 33.3202C13.0898 27.0711 18.1588 22.0078 24.4216 22.0078C30.6843 22.0078 35.7533 27.0711 35.7533 33.3202H13.0898Z" fill="#0078D4"/>
<path d="M30.9347 13.4793C30.9347 17.0202 28.0597 19.8883 24.5123 19.8883C20.9648 19.8883 18.0898 17.0202 18.0898 13.4793C18.0898 9.93837 20.9648 7.07031 24.5123 7.07031C28.0597 7.07031 30.9347 9.93837 30.9347 13.4793Z" fill="#0078D4"/>
<line x1="0.0898438" y1="32.0703" x2="48.0898" y2="32.0703" stroke="#50E6FF" stroke-width="4"/>
<rect x="4.08984" y="4.07031" width="4" height="9" fill="#0078D4"/>
<rect x="4.08984" y="8.07031" width="4" height="9" transform="rotate(-90 4.08984 8.07031)" fill="#0078D4"/>
<rect width="4" height="9" transform="matrix(-1 0 0 1 44.0898 4.07031)" fill="#0078D4"/>
<rect width="4" height="9" transform="matrix(4.37114e-08 -1 -1 -4.37114e-08 44.0898 8.07031)" fill="#0078D4"/>
<rect x="44.0898" y="48.0703" width="4" height="9" transform="rotate(-180 44.0898 48.0703)" fill="#0078D4"/>
<rect x="44.0898" y="44.0703" width="4" height="9" transform="rotate(90 44.0898 44.0703)" fill="#0078D4"/>
<rect width="4" height="9" transform="matrix(1 8.74228e-08 8.74228e-08 -1 4.08984 48.0703)" fill="#0078D4"/>
<rect width="4" height="9" transform="matrix(-1.31134e-07 1 1 1.31134e-07 4.08984 44.0703)" fill="#0078D4"/>
<rect x="12.0898" y="34.0703" width="24" height="4" fill="#0078D4"/>
</svg>